<?xml version="1.0" encoding="UTF-8"?>
<!DOCTYPE svg PUBLIC "-//W3C//DTD SVG 1.1//EN" "http://www.w3.org/Graphics/SVG/1.1/DTD/svg11.dtd">
<svg xmlns="http://www.w3.org/2000/svg" version="1.1" width="1407px" height="1406px" style="shape-rendering:geometricPrecision; text-rendering:geometricPrecision; image-rendering:optimizeQuality; fill-rule:evenodd; clip-rule:evenodd" xmlns:xlink="http://www.w3.org/1999/xlink">
<g><path style="opacity:0.984" fill="#0a4e00" d="M 1144.5,127.5 C 1153.01,130.303 1161.68,131.303 1170.5,130.5C 1180.82,136.276 1182.49,143.776 1175.5,153C 1172.75,154.123 1170.25,155.623 1168,157.5C 1163.2,170.911 1158.2,184.244 1153,197.5C 1136.92,227.327 1120.59,256.994 1104,286.5C 1086.64,311.91 1068.81,336.91 1050.5,361.5C 1049.83,361.5 1049.5,361.833 1049.5,362.5C 1044.38,367.23 1039.05,371.73 1033.5,376C 1020.63,389.699 1007.63,403.199 994.5,416.5C 978.202,429.653 960.869,441.32 942.5,451.5C 940.143,451.337 937.81,451.503 935.5,452C 928.94,456.771 922.274,461.271 915.5,465.5C 899.528,471.768 883.194,476.935 866.5,481C 850.986,484.248 835.319,485.248 819.5,484C 812.831,482.167 806.498,479.5 800.5,476C 791.155,468.665 781.488,461.832 771.5,455.5C 769.511,448.854 766.511,442.854 762.5,437.5C 759.645,434.408 758.812,430.741 760,426.5C 766.076,405.104 773.243,384.104 781.5,363.5C 790.224,343.705 798.724,323.705 807,303.5C 811.511,296.472 816.011,289.472 820.5,282.5C 823.878,276.751 827.044,270.751 830,264.5C 834.496,258.844 838.496,252.844 842,246.5C 846.337,240.997 851.17,235.997 856.5,231.5C 866.476,221.708 876.976,211.708 888,201.5C 888.464,200.906 888.631,200.239 888.5,199.5C 899.679,187.896 912.679,178.73 927.5,172C 981.565,148.734 1037.9,134.734 1096.5,130C 1112.45,128.171 1128.45,127.337 1144.5,127.5 Z"/></g>
<g><path style="opacity:0.651" fill="#0e8c00" d="M 1170.5,130.5 C 1161.68,131.303 1153.01,130.303 1144.5,127.5C 1153.5,125.882 1162.17,126.882 1170.5,130.5 Z"/></g>
<g><path style="opacity:1" fill="#0e8a00" d="M 1105.5,157.5 C 1118.17,157.333 1130.84,157.5 1143.5,158C 1138.42,170.329 1132.92,182.496 1127,194.5C 1111.67,220.5 1096.33,246.5 1081,272.5C 1062.12,300.246 1041.79,326.912 1020,352.5C 1005.83,366 991.667,379.5 977.5,393C 948.436,415.371 916.769,433.371 882.5,447C 863.66,453.302 844.327,455.968 824.5,455C 822.608,454.027 820.608,453.36 818.5,453C 807.347,444.588 795.68,436.921 783.5,430C 782.483,428.951 782.316,427.784 783,426.5C 788.461,429.412 794.294,430.245 800.5,429C 827.003,418.42 851.67,404.754 874.5,388C 923.294,352.206 965.794,310.04 1002,261.5C 1003.66,249.499 998.497,244.666 986.5,247C 985.449,248.385 984.116,249.385 982.5,250C 944.679,298.489 901.013,340.823 851.5,377C 835.61,387.864 818.943,397.531 801.5,406C 797.278,407.638 792.945,408.805 788.5,409.5C 790.088,401.567 792.588,393.901 796,386.5C 804.607,368.286 812.941,349.952 821,331.5C 830.162,314.506 839.828,297.839 850,281.5C 854.333,275.167 858.667,268.833 863,262.5C 871.864,253.97 880.364,245.137 888.5,236C 897.1,229.404 905.1,222.07 912.5,214C 927.619,202.179 944.286,193.179 962.5,187C 997.489,173.919 1033.49,164.919 1070.5,160C 1080.17,159.667 1089.83,159.333 1099.5,159C 1101.71,158.809 1103.71,158.309 1105.5,157.5 Z"/></g>
<g><path style="opacity:0.986" fill="#442d05" d="M 820.5,282.5 C 816.011,289.472 811.511,296.472 807,303.5C 798.724,323.705 790.224,343.705 781.5,363.5C 780.928,361.745 780.094,360.078 779,358.5C 778.333,352.833 778.333,347.167 779,341.5C 783.311,322.944 786.978,304.278 790,285.5C 791.302,261.724 790.302,238.057 787,214.5C 786.626,213.584 786.126,212.75 785.5,212C 782.648,210.409 779.648,209.076 776.5,208C 763.31,205.028 749.977,204.028 736.5,205C 730.358,206.45 724.692,208.95 719.5,212.5C 719.167,214 718.833,215.5 718.5,217C 713.45,246.779 708.616,276.613 704,306.5C 694.779,346.99 690.946,387.99 692.5,429.5C 693.927,432.764 696.261,435.264 699.5,437C 714.631,443.175 730.297,445.008 746.5,442.5C 750.941,443.277 754.274,445.611 756.5,449.5C 760.501,457.029 758.168,462.196 749.5,465C 726.391,470.706 704.391,467.706 683.5,456C 678.195,451.701 674.028,446.534 671,440.5C 667.824,430.815 665.657,421.149 664.5,411.5C 664.167,410.5 663.5,409.833 662.5,409.5C 663.771,383.668 666.604,358.001 671,332.5C 679.718,291.909 688.051,251.242 696,210.5C 698.377,204.238 701.877,198.738 706.5,194C 723.226,182.782 741.726,177.616 762,178.5C 777.023,177.428 790.523,181.262 802.5,190C 805.433,192.264 807.6,195.098 809,198.5C 816.529,225.984 820.363,253.984 820.5,282.5 Z"/></g>
<g><path style="opacity:1" fill="#613d04" d="M 781.5,363.5 C 773.243,384.104 766.076,405.104 760,426.5C 758.812,430.741 759.645,434.408 762.5,437.5C 762.53,438.497 762.03,439.164 761,439.5C 756.26,437.905 751.76,438.405 747.5,441C 732.614,442.045 717.948,440.711 703.5,437C 699.678,434.67 696.012,432.17 692.5,429.5C 690.946,387.99 694.779,346.99 704,306.5C 708.616,276.613 713.45,246.779 718.5,217C 718.833,215.5 719.167,214 719.5,212.5C 724.692,208.95 730.358,206.45 736.5,205C 749.977,204.028 763.31,205.028 776.5,208C 779.648,209.076 782.648,210.409 785.5,212C 786.126,212.75 786.626,213.584 787,214.5C 790.302,238.057 791.302,261.724 790,285.5C 786.978,304.278 783.311,322.944 779,341.5C 778.333,347.167 778.333,352.833 779,358.5C 780.094,360.078 780.928,361.745 781.5,363.5 Z"/></g>
<g><path style="opacity:0.847" fill="#0c7800" d="M 888.5,199.5 C 888.631,200.239 888.464,200.906 888,201.5C 876.976,211.708 866.476,221.708 856.5,231.5C 866.167,219.833 876.833,209.167 888.5,199.5 Z"/></g>
<g><path style="opacity:0.994" fill="#c86d15" d="M 662.5,409.5 C 663.5,409.833 664.167,410.5 664.5,411.5C 664.427,419.854 664.76,428.188 665.5,436.5C 652.221,437.335 638.887,439.168 625.5,442C 595.776,449.931 565.776,456.598 535.5,462C 524.711,464.929 514.045,468.263 503.5,472C 495.833,471.333 488.167,471.333 480.5,472C 476.942,470.108 474.442,467.275 473,463.5C 466.053,434.276 453.719,407.609 436,383.5C 420.92,365.818 402.753,361.651 381.5,371C 337.999,412.524 304.832,461.024 282,516.5C 270.891,549.94 260.557,583.607 251,617.5C 250.205,625.269 248.872,632.936 247,640.5C 217.532,675.105 197.865,714.771 188,759.5C 184.891,776.487 181.891,793.487 179,810.5C 178.629,828.207 177.629,845.874 176,863.5C 175.979,905.041 182.979,945.374 197,984.5C 214.66,1019.14 237.66,1049.81 266,1076.5C 268.075,1080.58 270.908,1084.08 274.5,1087C 296.623,1104.4 320.623,1118.73 346.5,1130C 384.386,1143.14 423.052,1153.47 462.5,1161C 492.993,1166.3 523.66,1170.97 554.5,1175C 583.886,1176.29 613.22,1178.29 642.5,1181C 718.113,1185.21 792.779,1178.88 866.5,1162C 938.723,1145.06 1007.72,1119.39 1073.5,1085C 1130.48,1050.35 1175.65,1004.19 1209,946.5C 1217.37,931.424 1224.37,915.757 1230,899.5C 1232.34,883.134 1235.01,866.801 1238,850.5C 1239.55,820.1 1236.88,790.1 1230,760.5C 1223.66,741.489 1217.33,722.489 1211,703.5C 1202.59,685.015 1193.92,666.682 1185,648.5C 1180.73,646.064 1178.06,642.398 1177,637.5C 1176.16,628.686 1175.66,619.853 1175.5,611C 1177.17,593.534 1177.67,576.034 1177,558.5C 1175.36,547.205 1174.03,535.872 1173,524.5C 1162.89,487.968 1149.22,452.968 1132,419.5C 1124.68,407.506 1115.85,396.673 1105.5,387C 1095.43,378.575 1084.43,377.242 1072.5,383C 1067.51,385.161 1062.84,387.828 1058.5,391C 1027.91,417.571 1001.74,447.738 980,481.5C 977.049,484.572 974.216,487.739 971.5,491C 967.789,491.825 964.122,491.659 960.5,490.5C 954.197,485.341 947.197,481.174 939.5,478C 933.662,476.458 927.995,474.458 922.5,472C 920.688,469.14 918.354,466.973 915.5,465.5C 922.274,461.271 928.94,456.771 935.5,452C 937.81,451.503 940.143,451.337 942.5,451.5C 947.028,453.404 951.694,455.237 956.5,457C 958.754,458.377 960.92,459.877 963,461.5C 972.577,445.773 983.077,430.773 994.5,416.5C 1007.63,403.199 1020.63,389.699 1033.5,376C 1039.05,371.73 1044.38,367.23 1049.5,362.5C 1050.17,362.5 1050.5,362.167 1050.5,361.5C 1061.65,354.933 1073.65,350.599 1086.5,348.5C 1086.61,349.117 1086.94,349.617 1087.5,350C 1085.92,351.14 1084.26,351.64 1082.5,351.5C 1081.61,352.325 1081.28,353.325 1081.5,354.5C 1084,353.877 1086.5,353.543 1089,353.5C 1090.35,355.019 1091.85,356.352 1093.5,357.5C 1093.67,356.603 1094,355.603 1094.5,354.5C 1095.31,354.808 1095.97,355.308 1096.5,356C 1095.04,359.084 1096.04,361.084 1099.5,362C 1099.17,362.333 1098.83,362.667 1098.5,363C 1099.78,363.684 1100.95,363.517 1102,362.5C 1102.6,363.965 1102.1,364.965 1100.5,365.5C 1098.87,365.032 1097.7,364.032 1097,362.5C 1095.57,364.374 1094.4,366.374 1093.5,368.5C 1093.82,369.647 1094.48,370.481 1095.5,371C 1092.02,371.493 1091.52,372.993 1094,375.5C 1095.41,371.831 1097.08,371.831 1099,375.5C 1100.33,374.833 1101.33,373.833 1102,372.5C 1102.33,372.833 1102.67,373.167 1103,373.5C 1104.37,370.629 1106.54,368.629 1109.5,367.5C 1108.41,366.391 1108.41,365.391 1109.5,364.5C 1111.02,364.88 1112.69,365.046 1114.5,365C 1113.17,366.333 1111.83,367.667 1110.5,369C 1115.48,373.646 1120.14,378.646 1124.5,384C 1124,384.5 1123.5,385 1123,385.5C 1119.84,381.626 1118.17,382.293 1118,387.5C 1118.33,387.167 1118.67,386.833 1119,386.5C 1120.25,389.381 1122.42,391.214 1125.5,392C 1125.17,392.333 1124.83,392.667 1124.5,393C 1126.18,394.709 1127.84,396.376 1129.5,398C 1128.39,399.813 1129.06,400.646 1131.5,400.5C 1132.13,403.315 1133.46,405.815 1135.5,408C 1135.17,408.333 1134.83,408.667 1134.5,409C 1137.27,410.976 1139.27,413.476 1140.5,416.5C 1140.29,417.086 1139.96,417.586 1139.5,418C 1141.3,418.637 1142.64,419.803 1143.5,421.5C 1143.64,422.903 1143.64,424.403 1143.5,426C 1147,427.35 1148.33,429.684 1147.5,433C 1151.1,433.635 1151.77,434.968 1149.5,437C 1150.17,438.333 1151.17,439.333 1152.5,440C 1152.17,440.333 1151.83,440.667 1151.5,441C 1153.04,442.11 1153.7,443.61 1153.5,445.5C 1156.93,445.35 1157.26,446.516 1154.5,449C 1155.02,450.888 1156.69,452.221 1159.5,453C 1159.35,454.974 1159.02,456.974 1158.5,459C 1161.49,460.668 1162.49,463.001 1161.5,466C 1163.14,468.91 1165.14,471.577 1167.5,474C 1166.83,474.667 1166.17,475.333 1165.5,476C 1166.5,477.667 1167.83,479 1169.5,480C 1166.72,481.779 1167.06,482.779 1170.5,483C 1170.5,485 1170.5,487 1170.5,489C 1171.5,490.667 1172.5,492.333 1173.5,494C 1173.17,495 1172.83,496 1172.5,497C 1176.11,498.464 1176.77,500.464 1174.5,503C 1176.32,506.438 1177.65,509.771 1178.5,513C 1178.17,513.333 1177.83,513.667 1177.5,514C 1178.31,517.203 1179.31,520.369 1180.5,523.5C 1179.62,525.682 1179.96,527.849 1181.5,530C 1179.86,531.646 1180.19,532.646 1182.5,533C 1181.79,534.343 1182.12,535.676 1183.5,537C 1181.58,538.703 1181.58,540.703 1183.5,543C 1182.3,544.703 1182.63,546.203 1184.5,547.5C 1183.97,548.192 1183.31,548.692 1182.5,549C 1183.43,550.194 1184.1,551.527 1184.5,553C 1184.52,555.606 1184.19,558.273 1183.5,561C 1184.17,562.333 1184.83,563.667 1185.5,565C 1185.31,566.903 1185.31,568.737 1185.5,570.5C 1183.01,571.541 1183.01,572.374 1185.5,573C 1184.76,576.77 1184.76,580.77 1185.5,585C 1184.83,587 1184.17,589 1183.5,591C 1183.91,601.619 1184.41,612.452 1185,623.5C 1188.41,624.622 1191.91,624.789 1195.5,624C 1196.19,622.933 1196.69,621.766 1197,620.5C 1197.67,624.167 1197.67,627.833 1197,631.5C 1195.9,630.033 1194.4,629.199 1192.5,629C 1193.65,628.086 1193.49,627.253 1192,626.5C 1187.54,627.467 1184.37,629.967 1182.5,634C 1183.65,634.645 1184.65,635.478 1185.5,636.5C 1187.12,635.509 1188.12,636.176 1188.5,638.5C 1185.77,641.166 1186.27,643.166 1190,644.5C 1190.33,644.167 1190.67,643.833 1191,643.5C 1191.33,645.167 1191.67,646.833 1192,648.5C 1193.71,646.29 1195.88,644.624 1198.5,643.5C 1203.86,646.913 1206.53,651.58 1206.5,657.5C 1204.66,655.157 1202.66,652.99 1200.5,651C 1200.83,650 1201.17,649 1201.5,648C 1200.18,648.148 1199.01,647.982 1198,647.5C 1197.5,648.667 1196.67,649.5 1195.5,650C 1196.45,650.483 1197.45,650.649 1198.5,650.5C 1198.38,652.484 1199.05,654.15 1200.5,655.5C 1199.97,656.192 1199.31,656.692 1198.5,657C 1200.59,657.953 1200.93,659.286 1199.5,661C 1200.45,661.617 1201.28,661.451 1202,660.5C 1202.32,662.061 1203.15,663.228 1204.5,664C 1203.98,664.561 1203.64,665.228 1203.5,666C 1204.56,667.928 1205.89,669.595 1207.5,671C 1206.98,671.561 1206.64,672.228 1206.5,673C 1208.61,675.049 1209.77,677.549 1210,680.5C 1210.83,682 1212,683.167 1213.5,684C 1212.98,684.561 1212.64,685.228 1212.5,686C 1215,687.953 1215.67,690.286 1214.5,693C 1216.59,693.953 1216.93,695.286 1215.5,697C 1218.45,698.223 1219.45,700.223 1218.5,703C 1220.63,703.918 1221.3,705.251 1220.5,707C 1222.89,708.309 1222.89,709.309 1220.5,710C 1223.35,710.879 1224.01,712.546 1222.5,715C 1223.88,717.529 1225.55,719.862 1227.5,722C 1225.42,723.32 1225.75,724.654 1228.5,726C 1227.88,728.498 1228.55,730.832 1230.5,733C 1230.17,733.333 1229.83,733.667 1229.5,734C 1231.17,737.667 1232.83,741.333 1234.5,745C 1233.83,745.333 1233.17,745.667 1232.5,746C 1235.19,747.416 1235.86,749.416 1234.5,752C 1236.59,752.953 1236.93,754.286 1235.5,756C 1236.58,756.674 1237.25,757.674 1237.5,759C 1239.93,770.992 1242.26,782.659 1244.5,794C 1244.65,800.284 1244.65,806.284 1244.5,812C 1245.5,812.333 1246.5,812.667 1247.5,813C 1246.17,813.667 1245.17,814.667 1244.5,816C 1245.17,818 1245.83,820 1246.5,822C 1245.29,826.725 1245.29,831.892 1246.5,837.5C 1246.18,838.647 1245.52,839.481 1244.5,840C 1245.17,840.333 1245.83,840.667 1246.5,841C 1245.95,851.067 1244.78,861.234 1243,871.5C 1242.29,872.973 1241.12,873.64 1239.5,873.5C 1239.66,874.873 1239.49,876.207 1239,877.5C 1238.67,877.167 1238.33,876.833 1238,876.5C 1236.07,878.419 1236.23,879.919 1238.5,881C 1237.55,881.483 1236.55,881.649 1235.5,881.5C 1235.02,884.988 1234.69,888.322 1234.5,891.5C 1235.07,893.059 1235.74,894.559 1236.5,896C 1234.12,896.974 1234.46,897.641 1237.5,898C 1237.37,899.974 1237.21,902.141 1237,904.5C 1210.97,970.409 1170.14,1023.91 1114.5,1065C 1114.83,1065.33 1115.17,1065.67 1115.5,1066C 1082.28,1090.66 1047.11,1109.5 1010,1122.5C 1004.22,1125.95 998.219,1128.95 992,1131.5C 991.667,1131.17 991.333,1130.83 991,1130.5C 987.89,1133.08 984.557,1134.41 981,1134.5C 979.899,1136.39 978.566,1137.06 977,1136.5C 955.897,1144.97 934.397,1152.14 912.5,1158C 911.638,1160.73 910.805,1160.9 910,1158.5C 904.114,1160.91 898.114,1162.91 892,1164.5C 891.667,1164.17 891.333,1163.83 891,1163.5C 890.047,1165.59 888.714,1165.93 887,1164.5C 880.317,1166.5 873.65,1168.5 867,1170.5C 866.275,1169.94 865.442,1169.61 864.5,1169.5C 844.584,1174.15 824.584,1178.15 804.5,1181.5C 803.914,1181.29 803.414,1180.96 803,1180.5C 787.874,1183.49 772.374,1186.16 756.5,1188.5C 755.033,1188.28 753.533,1187.94 752,1187.5C 750.333,1188.17 748.667,1188.83 747,1189.5C 736.833,1189.89 727.5,1189.89 719,1189.5C 715.049,1190.23 711.049,1190.9 707,1191.5C 698.833,1191.02 690.667,1190.69 682.5,1190.5C 680.68,1190.65 679.18,1191.32 678,1192.5C 676.333,1189.83 674.667,1189.83 673,1192.5C 670.566,1190.98 667.899,1189.98 665,1189.5C 661.658,1189.96 658.325,1190.29 655,1190.5C 654.125,1188.49 652.791,1188.49 651,1190.5C 648.056,1189.74 645.056,1189.08 642,1188.5C 633.644,1188.5 625.644,1188.5 618,1188.5C 616.518,1186.22 614.851,1186.22 613,1188.5C 611,1187.83 609,1187.17 607,1186.5C 602.978,1187.37 598.644,1187.03 594,1185.5C 592.856,1185.91 591.689,1186.24 590.5,1186.5C 582.349,1185.74 574.515,1184.74 567,1183.5C 563.901,1184.48 560.901,1184.15 558,1182.5C 557.333,1183.83 556.667,1183.83 556,1182.5C 555.667,1183.17 555.333,1183.83 555,1184.5C 553.333,1183.83 551.667,1183.17 550,1182.5C 546.333,1182.5 542.667,1182.5 539,1182.5C 532.254,1180.67 525.588,1179.34 519,1178.5C 518.055,1178.91 517.388,1179.57 517,1180.5C 515.538,1178.29 513.705,1177.63 511.5,1178.5C 510.252,1177.96 509.085,1177.29 508,1176.5C 504.478,1177.26 500.812,1177.26 497,1176.5C 494.957,1174.48 492.957,1174.15 491,1175.5C 486.301,1174.27 481.634,1172.94 477,1171.5C 476.667,1172.17 476.333,1172.83 476,1173.5C 474.921,1171.61 473.587,1171.27 472,1172.5C 471.309,1170.11 470.309,1170.11 469,1172.5C 466.395,1170.68 463.728,1170.01 461,1170.5C 460.196,1169.2 459.029,1168.53 457.5,1168.5C 455.236,1168.9 453.07,1168.9 451,1168.5C 450.333,1165.83 449.667,1165.83 449,1168.5C 447.108,1167.87 445.441,1166.87 444,1165.5C 442.984,1166.63 442.317,1166.3 442,1164.5C 441.612,1165.43 440.945,1166.09 440,1166.5C 437.191,1166.25 435.191,1164.91 434,1162.5C 432.667,1165.17 431.333,1165.17 430,1162.5C 429.333,1163.17 428.667,1163.83 428,1164.5C 422.509,1162.84 417.509,1161.18 413,1159.5C 412.055,1159.91 411.388,1160.57 411,1161.5C 409.268,1159.81 407.268,1158.47 405,1157.5C 404.055,1157.91 403.388,1158.57 403,1159.5C 402.558,1157.32 401.558,1156.65 400,1157.5C 399.333,1156.83 398.667,1156.17 398,1155.5C 395.911,1155.75 393.911,1155.75 392,1155.5C 390.768,1152.25 388.768,1151.91 386,1154.5C 384.654,1151.75 383.32,1151.42 382,1153.5C 380.951,1151.89 379.451,1151.23 377.5,1151.5C 377.725,1147.94 376.892,1147.61 375,1150.5C 368.939,1149.16 363.605,1147.16 359,1144.5C 357.238,1144.94 357.405,1145.44 359.5,1146C 357.112,1146.87 355.612,1146.03 355,1143.5C 353.284,1144.55 352.284,1143.89 352,1141.5C 349.834,1142.78 347.834,1142.44 346,1140.5C 344.238,1140.94 344.405,1141.44 346.5,1142C 345.376,1142.25 344.376,1142.75 343.5,1143.5C 345.135,1144.68 346.802,1144.68 348.5,1143.5C 349.604,1144.63 349.271,1145.46 347.5,1146C 349.577,1146.19 351.577,1146.69 353.5,1147.5C 352.667,1147.83 351.833,1148.17 351,1148.5C 340.597,1146.37 330.597,1143.03 321,1138.5C 320.055,1138.91 319.388,1139.57 319,1140.5C 318.667,1139.5 318.333,1138.5 318,1137.5C 317.155,1139.61 316.322,1141.61 315.5,1143.5C 293.071,1131.58 272.404,1117.08 253.5,1100C 250.389,1099.56 247.723,1098.22 245.5,1096C 215.409,1068.96 191.243,1037.46 173,1001.5C 155.483,958.55 147.15,913.883 148,867.5C 148.359,814.211 157.526,762.544 175.5,712.5C 182.078,698.011 189.245,683.678 197,669.5C 204.947,657.886 213.281,646.552 222,635.5C 222.137,625.013 223.47,614.679 226,604.5C 230.48,590.577 234.647,576.577 238.5,562.5C 251.684,515.474 271.851,471.807 299,431.5C 318.48,400.676 342.313,373.509 370.5,350C 374.569,346.937 378.902,344.27 383.5,342C 397.491,338.71 411.491,338.71 425.5,342C 434.497,345.006 442.497,349.673 449.5,356C 474.044,382.575 491.211,413.409 501,448.5C 508.664,445.278 516.497,442.445 524.5,440C 560.449,432.096 596.116,423.096 631.5,413C 641.775,410.281 652.108,409.115 662.5,409.5 Z M 994.5,416.5 C 983.077,430.773 972.577,445.773 963,461.5C 960.92,459.877 958.754,458.377 956.5,457C 951.694,455.237 947.028,453.404 942.5,451.5C 960.869,441.32 978.202,429.653 994.5,416.5 Z"/></g>
<g><path style="opacity:1" fill="#fe9800" d="M 665.5,436.5 C 666.434,440.373 667.934,444.039 670,447.5C 686.632,466.495 707.632,475.161 733,473.5C 743.519,474.412 753.352,472.245 762.5,467C 766.146,463.471 769.146,459.638 771.5,455.5C 781.488,461.832 791.155,468.665 800.5,476C 806.498,479.5 812.831,482.167 819.5,484C 835.319,485.248 850.986,484.248 866.5,481C 883.194,476.935 899.528,471.768 915.5,465.5C 918.354,466.973 920.688,469.14 922.5,472C 927.995,474.458 933.662,476.458 939.5,478C 947.197,481.174 954.197,485.341 960.5,490.5C 964.122,491.659 967.789,491.825 971.5,491C 974.216,487.739 977.049,484.572 980,481.5C 1001.74,447.738 1027.91,417.571 1058.5,391C 1062.84,387.828 1067.51,385.161 1072.5,383C 1084.43,377.242 1095.43,378.575 1105.5,387C 1115.85,396.673 1124.68,407.506 1132,419.5C 1149.22,452.968 1162.89,487.968 1173,524.5C 1174.03,535.872 1175.36,547.205 1177,558.5C 1177.67,576.034 1177.17,593.534 1175.5,611C 1175.66,619.853 1176.16,628.686 1177,637.5C 1178.06,642.398 1180.73,646.064 1185,648.5C 1193.92,666.682 1202.59,685.015 1211,703.5C 1217.33,722.489 1223.66,741.489 1230,760.5C 1236.88,790.1 1239.55,820.1 1238,850.5C 1235.01,866.801 1232.34,883.134 1230,899.5C 1224.37,915.757 1217.37,931.424 1209,946.5C 1175.65,1004.19 1130.48,1050.35 1073.5,1085C 1007.72,1119.39 938.723,1145.06 866.5,1162C 792.779,1178.88 718.113,1185.21 642.5,1181C 613.22,1178.29 583.886,1176.29 554.5,1175C 523.66,1170.97 492.993,1166.3 462.5,1161C 423.052,1153.47 384.386,1143.14 346.5,1130C 320.623,1118.73 296.623,1104.4 274.5,1087C 270.908,1084.08 268.075,1080.58 266,1076.5C 237.66,1049.81 214.66,1019.14 197,984.5C 182.979,945.374 175.979,905.041 176,863.5C 177.629,845.874 178.629,828.207 179,810.5C 181.891,793.487 184.891,776.487 188,759.5C 197.865,714.771 217.532,675.105 247,640.5C 248.872,632.936 250.205,625.269 251,617.5C 260.557,583.607 270.891,549.94 282,516.5C 304.832,461.024 337.999,412.524 381.5,371C 402.753,361.651 420.92,365.818 436,383.5C 453.719,407.609 466.053,434.276 473,463.5C 474.442,467.275 476.942,470.108 480.5,472C 488.167,471.333 495.833,471.333 503.5,472C 514.045,468.263 524.711,464.929 535.5,462C 565.776,456.598 595.776,449.931 625.5,442C 638.887,439.168 652.221,437.335 665.5,436.5 Z M 994.5,416.5 C 983.077,430.773 972.577,445.773 963,461.5C 960.92,459.877 958.754,458.377 956.5,457C 951.694,455.237 947.028,453.404 942.5,451.5C 960.869,441.32 978.202,429.653 994.5,416.5 Z"/></g>
<g><path style="opacity:1" fill="#4d3306" d="M 664.5,411.5 C 665.657,421.149 667.824,430.815 671,440.5C 674.028,446.534 678.195,451.701 683.5,456C 704.391,467.706 726.391,470.706 749.5,465C 758.168,462.196 760.501,457.029 756.5,449.5C 754.274,445.611 750.941,443.277 746.5,442.5C 730.297,445.008 714.631,443.175 699.5,437C 696.261,435.264 693.927,432.764 692.5,429.5C 696.012,432.17 699.678,434.67 703.5,437C 717.948,440.711 732.614,442.045 747.5,441C 751.76,438.405 756.26,437.905 761,439.5C 762.03,439.164 762.53,438.497 762.5,437.5C 766.511,442.854 769.511,448.854 771.5,455.5C 769.146,459.638 766.146,463.471 762.5,467C 753.352,472.245 743.519,474.412 733,473.5C 707.632,475.161 686.632,466.495 670,447.5C 667.934,444.039 666.434,440.373 665.5,436.5C 664.76,428.188 664.427,419.854 664.5,411.5 Z"/></g>
<g><path style="opacity:0.089" fill="#fe9300" d="M 1207.5,619.5 C 1208.75,625.337 1210.08,631.17 1211.5,637C 1211.35,638.256 1211.02,639.423 1210.5,640.5C 1208.78,638.747 1207.28,636.747 1206,634.5C 1205.33,629.833 1205.33,625.167 1206,620.5C 1206.38,619.944 1206.88,619.611 1207.5,619.5 Z"/></g>
<g><path style="opacity:0.071" fill="#fe9800" d="M 238.5,562.5 C 234.647,576.577 230.48,590.577 226,604.5C 223.47,614.679 222.137,625.013 222,635.5C 213.281,646.552 204.947,657.886 197,669.5C 189.245,683.678 182.078,698.011 175.5,712.5C 174.418,710.177 174.585,707.843 176,705.5C 182.622,690.922 190.289,676.922 199,663.5C 202.436,652.276 208.603,642.942 217.5,635.5C 220.685,609.958 227.685,585.625 238.5,562.5 Z"/></g>
<g><path style="opacity:1" fill="#854800" d="M 871.5,698.5 C 872.892,700.273 874.059,702.273 875,704.5C 880.067,718.368 884.734,732.368 889,746.5C 893.038,772.088 891.705,797.421 885,822.5C 882.257,828.985 879.257,835.319 876,841.5C 873.666,845 870.832,848 867.5,850.5C 862.497,852.224 857.497,854.058 852.5,856C 841.618,856.31 832.784,852.143 826,843.5C 820.282,835.398 815.616,826.732 812,817.5C 807.556,782.055 809.889,747.055 819,712.5C 821.126,703.762 824.96,695.929 830.5,689C 839.02,683.575 847.687,683.241 856.5,688C 862.192,690.611 867.192,694.111 871.5,698.5 Z"/></g>
<g><path style="opacity:1" fill="#864900" d="M 571.5,876.5 C 567.857,871.852 564.19,867.185 560.5,862.5C 559.675,861.614 558.675,861.281 557.5,861.5C 554.364,852.925 551.53,844.258 549,835.5C 542.568,802.07 544.402,769.07 554.5,736.5C 553.833,735.833 553.167,735.167 552.5,734.5C 554.581,729.258 556.248,723.925 557.5,718.5C 559.478,711.044 563.144,704.544 568.5,699C 577.139,697.752 585.806,697.418 594.5,698C 608.877,704.711 618.711,715.544 624,730.5C 634.474,767.996 635.141,805.662 626,843.5C 620.802,859.366 610.636,870.866 595.5,878C 588.916,879.544 582.249,879.877 575.5,879C 573.934,878.392 572.6,877.558 571.5,876.5 Z"/></g>
<g><path style="opacity:1" fill="#f89400" d="M 571.5,720.5 C 577.822,719.579 581.656,722.245 583,728.5C 585.358,740.08 583.191,750.58 576.5,760C 570.128,763.187 565.961,761.354 564,754.5C 561.342,741.88 563.842,730.547 571.5,720.5 Z"/></g>
<g><path style="opacity:1" fill="#e68900" d="M 826.5,719.5 C 829.583,716.083 833.25,715.583 837.5,718C 840.868,722.213 842.201,727.047 841.5,732.5C 842.376,741.327 839.71,748.827 833.5,755C 826.723,757.937 822.223,755.77 820,748.5C 818.843,739.109 820.177,730.109 824,721.5C 824.708,720.619 825.542,719.953 826.5,719.5 Z"/></g>
<g><path style="opacity:1" fill="#fd9700" d="M 826.5,719.5 C 830.15,718.272 833.816,718.272 837.5,719.5C 839.955,728.245 839.788,736.912 837,745.5C 834.099,752.361 829.765,753.694 824,749.5C 821.895,739.214 822.729,729.214 826.5,719.5 Z"/></g>
<g><path style="opacity:1" fill="#985500" d="M 557.5,718.5 C 556.248,723.925 554.581,729.258 552.5,734.5C 553.167,735.167 553.833,735.833 554.5,736.5C 544.402,769.07 542.568,802.07 549,835.5C 551.53,844.258 554.364,852.925 557.5,861.5C 558.675,861.281 559.675,861.614 560.5,862.5C 564.19,867.185 567.857,871.852 571.5,876.5C 568.462,874.888 565.629,872.888 563,870.5C 552.13,856.412 545.797,840.412 544,822.5C 540.882,794.463 542.882,766.796 550,739.5C 551.837,732.147 554.337,725.147 557.5,718.5 Z"/></g>
<g><path style="opacity:1" fill="#f49200" d="M 577.5,760.5 C 586.473,759.614 589.64,763.614 587,772.5C 584.794,776.125 581.627,777.292 577.5,776C 573.541,770.835 573.541,765.668 577.5,760.5 Z"/></g>
<g><path style="opacity:1" fill="#e58700" d="M 836.5,758.5 C 838.92,758.292 841.253,758.626 843.5,759.5C 843.833,760.833 844.167,762.167 844.5,763.5C 844.109,766.751 842.942,769.751 841,772.5C 835.897,775.907 832.73,774.574 831.5,768.5C 832.295,764.712 833.962,761.379 836.5,758.5 Z"/></g>
<g><path style="opacity:1" fill="#945200" d="M 871.5,698.5 C 867.192,694.111 862.192,690.611 856.5,688C 847.687,683.241 839.02,683.575 830.5,689C 824.96,695.929 821.126,703.762 819,712.5C 809.889,747.055 807.556,782.055 812,817.5C 815.616,826.732 820.282,835.398 826,843.5C 832.784,852.143 841.618,856.31 852.5,856C 857.497,854.058 862.497,852.224 867.5,850.5C 860.08,858.058 851.08,860.558 840.5,858C 830.72,853.22 823.22,846.054 818,836.5C 810.214,820.069 806.714,802.736 807.5,784.5C 807.795,758.471 810.962,732.804 817,707.5C 820.264,696.449 826.764,687.949 836.5,682C 852.141,679.491 863.808,684.991 871.5,698.5 Z"/></g>
<g><path style="opacity:1" fill="#c76c15" d="M 1207.5,619.5 C 1206.88,619.611 1206.38,619.944 1206,620.5C 1205.33,625.167 1205.33,629.833 1206,634.5C 1207.28,636.747 1208.78,638.747 1210.5,640.5C 1219.63,658.769 1228.8,677.103 1238,695.5C 1247.73,719.696 1256.07,744.363 1263,769.5C 1274.87,823.946 1271.21,877.279 1252,929.5C 1211.01,1020.16 1145.51,1086.66 1055.5,1129C 969.064,1169.59 878.397,1195.59 783.5,1207C 737.574,1211.4 691.574,1212.4 645.5,1210C 559.709,1207.53 475.376,1195.2 392.5,1173C 365.7,1165.79 340.033,1155.96 315.5,1143.5C 316.322,1141.61 317.155,1139.61 318,1137.5C 318.333,1138.5 318.667,1139.5 319,1140.5C 319.388,1139.57 320.055,1138.91 321,1138.5C 330.597,1143.03 340.597,1146.37 351,1148.5C 351.833,1148.17 352.667,1147.83 353.5,1147.5C 351.577,1146.69 349.577,1146.19 347.5,1146C 349.271,1145.46 349.604,1144.63 348.5,1143.5C 346.802,1144.68 345.135,1144.68 343.5,1143.5C 344.376,1142.75 345.376,1142.25 346.5,1142C 344.405,1141.44 344.238,1140.94 346,1140.5C 347.834,1142.44 349.834,1142.78 352,1141.5C 352.284,1143.89 353.284,1144.55 355,1143.5C 355.612,1146.03 357.112,1146.87 359.5,1146C 357.405,1145.44 357.238,1144.94 359,1144.5C 363.605,1147.16 368.939,1149.16 375,1150.5C 376.892,1147.61 377.725,1147.94 377.5,1151.5C 379.451,1151.23 380.951,1151.89 382,1153.5C 383.32,1151.42 384.654,1151.75 386,1154.5C 388.768,1151.91 390.768,1152.25 392,1155.5C 393.911,1155.75 395.911,1155.75 398,1155.5C 398.667,1156.17 399.333,1156.83 400,1157.5C 401.558,1156.65 402.558,1157.32 403,1159.5C 403.388,1158.57 404.055,1157.91 405,1157.5C 407.268,1158.47 409.268,1159.81 411,1161.5C 411.388,1160.57 412.055,1159.91 413,1159.5C 417.509,1161.18 422.509,1162.84 428,1164.5C 428.667,1163.83 429.333,1163.17 430,1162.5C 431.333,1165.17 432.667,1165.17 434,1162.5C 435.191,1164.91 437.191,1166.25 440,1166.5C 440.945,1166.09 441.612,1165.43 442,1164.5C 442.317,1166.3 442.984,1166.63 444,1165.5C 445.441,1166.87 447.108,1167.87 449,1168.5C 449.667,1165.83 450.333,1165.83 451,1168.5C 453.07,1168.9 455.236,1168.9 457.5,1168.5C 459.029,1168.53 460.196,1169.2 461,1170.5C 463.728,1170.01 466.395,1170.68 469,1172.5C 470.309,1170.11 471.309,1170.11 472,1172.5C 473.587,1171.27 474.921,1171.61 476,1173.5C 476.333,1172.83 476.667,1172.17 477,1171.5C 481.634,1172.94 486.301,1174.27 491,1175.5C 492.957,1174.15 494.957,1174.48 497,1176.5C 500.812,1177.26 504.478,1177.26 508,1176.5C 509.085,1177.29 510.252,1177.96 511.5,1178.5C 513.705,1177.63 515.538,1178.29 517,1180.5C 517.388,1179.57 518.055,1178.91 519,1178.5C 525.588,1179.34 532.254,1180.67 539,1182.5C 542.667,1182.5 546.333,1182.5 550,1182.5C 551.667,1183.17 553.333,1183.83 555,1184.5C 555.333,1183.83 555.667,1183.17 556,1182.5C 556.667,1183.83 557.333,1183.83 558,1182.5C 560.901,1184.15 563.901,1184.48 567,1183.5C 574.515,1184.74 582.349,1185.74 590.5,1186.5C 591.689,1186.24 592.856,1185.91 594,1185.5C 598.644,1187.03 602.978,1187.37 607,1186.5C 609,1187.17 611,1187.83 613,1188.5C 614.851,1186.22 616.518,1186.22 618,1188.5C 625.644,1188.5 633.644,1188.5 642,1188.5C 645.056,1189.08 648.056,1189.74 651,1190.5C 652.791,1188.49 654.125,1188.49 655,1190.5C 658.325,1190.29 661.658,1189.96 665,1189.5C 667.899,1189.98 670.566,1190.98 673,1192.5C 674.667,1189.83 676.333,1189.83 678,1192.5C 679.18,1191.32 680.68,1190.65 682.5,1190.5C 690.667,1190.69 698.833,1191.02 707,1191.5C 711.049,1190.9 715.049,1190.23 719,1189.5C 727.5,1189.89 736.833,1189.89 747,1189.5C 748.667,1188.83 750.333,1188.17 752,1187.5C 753.533,1187.94 755.033,1188.28 756.5,1188.5C 772.374,1186.16 787.874,1183.49 803,1180.5C 803.414,1180.96 803.914,1181.29 804.5,1181.5C 824.584,1178.15 844.584,1174.15 864.5,1169.5C 865.442,1169.61 866.275,1169.94 867,1170.5C 873.65,1168.5 880.317,1166.5 887,1164.5C 888.714,1165.93 890.047,1165.59 891,1163.5C 891.333,1163.83 891.667,1164.17 892,1164.5C 898.114,1162.91 904.114,1160.91 910,1158.5C 910.805,1160.9 911.638,1160.73 912.5,1158C 934.397,1152.14 955.897,1144.97 977,1136.5C 978.566,1137.06 979.899,1136.39 981,1134.5C 984.557,1134.41 987.89,1133.08 991,1130.5C 991.333,1130.83 991.667,1131.17 992,1131.5C 998.219,1128.95 1004.22,1125.95 1010,1122.5C 1047.11,1109.5 1082.28,1090.66 1115.5,1066C 1115.17,1065.67 1114.83,1065.33 1114.5,1065C 1170.14,1023.91 1210.97,970.409 1237,904.5C 1237.21,902.141 1237.37,899.974 1237.5,898C 1234.46,897.641 1234.12,896.974 1236.5,896C 1235.74,894.559 1235.07,893.059 1234.5,891.5C 1234.69,888.322 1235.02,884.988 1235.5,881.5C 1236.55,881.649 1237.55,881.483 1238.5,881C 1236.23,879.919 1236.07,878.419 1238,876.5C 1238.33,876.833 1238.67,877.167 1239,877.5C 1239.49,876.207 1239.66,874.873 1239.5,873.5C 1241.12,873.64 1242.29,872.973 1243,871.5C 1244.78,861.234 1245.95,851.067 1246.5,841C 1245.83,840.667 1245.17,840.333 1244.5,840C 1245.52,839.481 1246.18,838.647 1246.5,837.5C 1245.29,831.892 1245.29,826.725 1246.5,822C 1245.83,820 1245.17,818 1244.5,816C 1245.17,814.667 1246.17,813.667 1247.5,813C 1246.5,812.667 1245.5,812.333 1244.5,812C 1244.65,806.284 1244.65,800.284 1244.5,794C 1242.26,782.659 1239.93,770.992 1237.5,759C 1237.25,757.674 1236.58,756.674 1235.5,756C 1236.93,754.286 1236.59,752.953 1234.5,752C 1235.86,749.416 1235.19,747.416 1232.5,746C 1233.17,745.667 1233.83,745.333 1234.5,745C 1232.83,741.333 1231.17,737.667 1229.5,734C 1229.83,733.667 1230.17,733.333 1230.5,733C 1228.55,730.832 1227.88,728.498 1228.5,726C 1225.75,724.654 1225.42,723.32 1227.5,722C 1225.55,719.862 1223.88,717.529 1222.5,715C 1224.01,712.546 1223.35,710.879 1220.5,710C 1222.89,709.309 1222.89,708.309 1220.5,707C 1221.3,705.251 1220.63,703.918 1218.5,703C 1219.45,700.223 1218.45,698.223 1215.5,697C 1216.93,695.286 1216.59,693.953 1214.5,693C 1215.67,690.286 1215,687.953 1212.5,686C 1212.64,685.228 1212.98,684.561 1213.5,684C 1212,683.167 1210.83,682 1210,680.5C 1209.77,677.549 1208.61,675.049 1206.5,673C 1206.64,672.228 1206.98,671.561 1207.5,671C 1205.89,669.595 1204.56,667.928 1203.5,666C 1203.64,665.228 1203.98,664.561 1204.5,664C 1203.15,663.228 1202.32,662.061 1202,660.5C 1201.28,661.451 1200.45,661.617 1199.5,661C 1200.93,659.286 1200.59,657.953 1198.5,657C 1199.31,656.692 1199.97,656.192 1200.5,655.5C 1199.05,654.15 1198.38,652.484 1198.5,650.5C 1197.45,650.649 1196.45,650.483 1195.5,650C 1196.67,649.5 1197.5,648.667 1198,647.5C 1199.01,647.982 1200.18,648.148 1201.5,648C 1201.17,649 1200.83,650 1200.5,651C 1202.66,652.99 1204.66,655.157 1206.5,657.5C 1206.53,651.58 1203.86,646.913 1198.5,643.5C 1195.88,644.624 1193.71,646.29 1192,648.5C 1191.67,646.833 1191.33,645.167 1191,643.5C 1190.67,643.833 1190.33,644.167 1190,644.5C 1186.27,643.166 1185.77,641.166 1188.5,638.5C 1188.12,636.176 1187.12,635.509 1185.5,636.5C 1184.65,635.478 1183.65,634.645 1182.5,634C 1184.37,629.967 1187.54,627.467 1192,626.5C 1193.49,627.253 1193.65,628.086 1192.5,629C 1194.4,629.199 1195.9,630.033 1197,631.5C 1197.67,627.833 1197.67,624.167 1197,620.5C 1196.69,621.766 1196.19,622.933 1195.5,624C 1191.91,624.789 1188.41,624.622 1185,623.5C 1184.41,612.452 1183.91,601.619 1183.5,591C 1184.17,589 1184.83,587 1185.5,585C 1184.76,580.77 1184.76,576.77 1185.5,573C 1183.01,572.374 1183.01,571.541 1185.5,570.5C 1185.31,568.737 1185.31,566.903 1185.5,565C 1184.83,563.667 1184.17,562.333 1183.5,561C 1184.19,558.273 1184.52,555.606 1184.5,553C 1184.1,551.527 1183.43,550.194 1182.5,549C 1183.31,548.692 1183.97,548.192 1184.5,547.5C 1182.63,546.203 1182.3,544.703 1183.5,543C 1181.58,540.703 1181.58,538.703 1183.5,537C 1182.12,535.676 1181.79,534.343 1182.5,533C 1180.19,532.646 1179.86,531.646 1181.5,530C 1179.96,527.849 1179.62,525.682 1180.5,523.5C 1179.31,520.369 1178.31,517.203 1177.5,514C 1177.83,513.667 1178.17,513.333 1178.5,513C 1177.65,509.771 1176.32,506.438 1174.5,503C 1176.77,500.464 1176.11,498.464 1172.5,497C 1172.83,496 1173.17,495 1173.5,494C 1172.5,492.333 1171.5,490.667 1170.5,489C 1170.5,487 1170.5,485 1170.5,483C 1167.06,482.779 1166.72,481.779 1169.5,480C 1167.83,479 1166.5,477.667 1165.5,476C 1166.17,475.333 1166.83,474.667 1167.5,474C 1165.14,471.577 1163.14,468.91 1161.5,466C 1162.49,463.001 1161.49,460.668 1158.5,459C 1159.02,456.974 1159.35,454.974 1159.5,453C 1156.69,452.221 1155.02,450.888 1154.5,449C 1157.26,446.516 1156.93,445.35 1153.5,445.5C 1153.7,443.61 1153.04,442.11 1151.5,441C 1151.83,440.667 1152.17,440.333 1152.5,440C 1151.17,439.333 1150.17,438.333 1149.5,437C 1151.77,434.968 1151.1,433.635 1147.5,433C 1148.33,429.684 1147,427.35 1143.5,426C 1143.64,424.403 1143.64,422.903 1143.5,421.5C 1142.64,419.803 1141.3,418.637 1139.5,418C 1139.96,417.586 1140.29,417.086 1140.5,416.5C 1139.27,413.476 1137.27,410.976 1134.5,409C 1134.83,408.667 1135.17,408.333 1135.5,408C 1133.46,405.815 1132.13,403.315 1131.5,400.5C 1129.06,400.646 1128.39,399.813 1129.5,398C 1127.84,396.376 1126.18,394.709 1124.5,393C 1124.83,392.667 1125.17,392.333 1125.5,392C 1122.42,391.214 1120.25,389.381 1119,386.5C 1118.67,386.833 1118.33,387.167 1118,387.5C 1118.17,382.293 1119.84,381.626 1123,385.5C 1123.5,385 1124,384.5 1124.5,384C 1120.14,378.646 1115.48,373.646 1110.5,369C 1111.83,367.667 1113.17,366.333 1114.5,365C 1112.69,365.046 1111.02,364.88 1109.5,364.5C 1108.41,365.391 1108.41,366.391 1109.5,367.5C 1106.54,368.629 1104.37,370.629 1103,373.5C 1102.67,373.167 1102.33,372.833 1102,372.5C 1101.33,373.833 1100.33,374.833 1099,375.5C 1097.08,371.831 1095.41,371.831 1094,375.5C 1091.52,372.993 1092.02,371.493 1095.5,371C 1094.48,370.481 1093.82,369.647 1093.5,368.5C 1094.4,366.374 1095.57,364.374 1097,362.5C 1097.7,364.032 1098.87,365.032 1100.5,365.5C 1102.1,364.965 1102.6,363.965 1102,362.5C 1100.95,363.517 1099.78,363.684 1098.5,363C 1098.83,362.667 1099.17,362.333 1099.5,362C 1096.04,361.084 1095.04,359.084 1096.5,356C 1095.97,355.308 1095.31,354.808 1094.5,354.5C 1094,355.603 1093.67,356.603 1093.5,357.5C 1091.85,356.352 1090.35,355.019 1089,353.5C 1086.5,353.543 1084,353.877 1081.5,354.5C 1081.28,353.325 1081.61,352.325 1082.5,351.5C 1084.26,351.64 1085.92,351.14 1087.5,350C 1086.94,349.617 1086.61,349.117 1086.5,348.5C 1098.63,345.984 1107.3,350.317 1112.5,361.5C 1122.65,367.136 1131.48,374.47 1139,383.5C 1146.44,392.277 1153.11,401.61 1159,411.5C 1178.95,447.068 1193.61,484.735 1203,524.5C 1204.61,534.798 1205.95,545.132 1207,555.5C 1207.12,576.908 1207.29,598.241 1207.5,619.5 Z"/></g>
</svg>
